<?xml version="1.0" standalone="no"?>
<!DOCTYPE svg PUBLIC "-//W3C//DTD SVG 20010904//EN"
 "http://www.w3.org/TR/2001/REC-SVG-20010904/DTD/svg10.dtd">
<svg version="1.0" xmlns="http://www.w3.org/2000/svg"
 width="300.000000pt" height="300.000000pt" viewBox="0 0 300.000000 300.000000"
 preserveAspectRatio="xMidYMid meet">
<metadata>
Created by potrace 1.11, written by Peter Selinger 2001-2013
</metadata>
<g transform="translate(0.000000,300.000000) scale(0.100000,-0.100000)"
fill="#000000" stroke="none">
<path d="M217 2300 c-19 -16 -37 -43 -40 -60 -4 -19 38 -247 117 -637 68 -334
134 -659 146 -722 11 -63 28 -128 36 -144 31 -59 -5 -57 1041 -57 887 0 960 1
983 17 14 9 30 24 37 33 13 16 35 105 58 229 13 74 162 802 225 1106 37 174
33 211 -23 245 -31 19 -61 20 -1289 20 l-1257 0 -34 -30z m1680 -44 c33 -30
37 -39 41 -95 l4 -61 -428 2 -428 3 0 30 c1 76 5 88 38 121 l34 34 351 0 351
0 37 -34z m-1553 -12 c21 -8 21 -60 0 -68 -38 -14 -71 33 -42 62 14 14 20 14
42 6z m154 -6 c18 -18 14 -46 -9 -58 -26 -14 -49 3 -49 35 0 32 35 46 58 23z
m580 -720 l2 -578 -298 0 -298 0 -48 238 c-27 130 -79 388 -116 572 -50 245
-65 337 -57 342 7 4 192 7 412 5 l400 -2 3 -577z m1692 573 c0 -5 -52 -262
-115 -571 -63 -310 -115 -567 -115 -572 0 -4 -131 -7 -295 -6 l-295 3 0 570
c0 314 0 573 0 578 0 10 820 9 820 -2z m-832 -1216 c-3 -51 -9 -70 -28 -91
-56 -59 -57 -59 -395 -59 -303 0 -311 1 -352 23 -24 12 -49 32 -58 45 -15 23
-28 130 -18 141 4 3 197 6 431 6 l424 0 -4 -65z"/>
<path d="M1414 2209 c-13 -22 13 -29 102 -29 86 0 95 2 92 18 -3 15 -16 17
-96 19 -50 0 -95 -3 -98 -8z"/>
<path d="M557 1773 c-4 -3 -7 -114 -7 -245 l0 -238 45 0 45 0 0 69 0 68 93 5
c130 7 184 39 207 126 26 99 -22 187 -117 211 -46 12 -256 15 -266 4z m268
-97 c43 -28 45 -96 5 -136 -17 -17 -34 -20 -105 -20 l-85 0 0 83 c0 46 3 87 8
91 12 13 151 -1 177 -18z"/>
<path d="M2151 1587 c-47 -105 -95 -216 -108 -244 l-23 -53 48 0 48 0 23 55
23 55 117 0 117 0 23 -55 23 -55 49 0 48 0 -33 78 c-18 42 -66 152 -107 245
l-73 167 -46 0 -45 0 -84 -193z m171 -14 l36 -88 -75 -3 c-42 -2 -77 -1 -79 1
-2 2 12 41 31 87 19 46 35 86 35 87 0 2 4 3 8 3 4 0 24 -39 44 -87z"/>
<path d="M1456 868 c-35 -49 -4 -111 54 -111 58 0 89 62 54 111 -11 16 -25 22
-54 22 -29 0 -43 -6 -54 -22z"/>
</g>
</svg>
